<?xml version="1.0" encoding="utf-8"?>
<!DOCTYPE svg PUBLIC "-//W3C//DTD SVG 1.1//EN" "http://www.w3.org/Graphics/SVG/1.1/DTD/svg11.dtd">

<svg xmlns="http://www.w3.org/2000/svg" xmlns:xlink="http://www.w3.org/1999/xlink" t="1603716816168" class="icon" viewBox="0 0 1185 1024" version="1.1" p-id="8256" width="231.4453125" height="200">
  <defs>
    <style type="text/css"/>
  </defs>
  <path d="M897.697684 109.487158c-12.665263-30.504421-34.465684-60.712421-64.808421-77.770105-88.387368-49.690947-225.333895 13.069474-291.139368 85.692631 0 0-143.683368 196.823579-308.089263 226.816 0 0-342.420211 28.294737-197.389474 441.748211 0 0 225.064421 464.922947 703.568842 40.286316 0 0 319.461053-327.114105 157.857684-716.773053M468.803368 442.044632c-46.753684 42.684632-106.496 14.497684-112.478315-14.551579-5.632-27.270737-6.602105-58.556632 39.477894-72.704 46.053053-14.147368 83.294316-32.309895 138.213053-72.704 56.939789-41.930105 78.955789-72.730947 78.955789-72.730948 21.180632-28.779789 36.998737-25.492211 39.477895 0 4.419368 45.729684-140.314947 193.212632-183.646316 232.690527" fill="#D42E10" p-id="8257"/>
  <path d="M1149.386105 789.854316s-167.343158 343.983158-519.68 170.361263c46.834526-27.055158 96.579368-62.625684 149.61179-109.67579 0 0 206.955789-212.156632 203.290947-498.229894 81.596632 19.240421 284.833684 101.672421 166.777263 437.544421" fill="#D42E10" p-id="8258"/>
</svg>
