<?xml version="1.0" standalone="no"?>
<!DOCTYPE svg PUBLIC "-//W3C//DTD SVG 20010904//EN"
 "http://www.w3.org/TR/2001/REC-SVG-20010904/DTD/svg10.dtd">
<svg version="1.0" xmlns="http://www.w3.org/2000/svg"
 width="208.000000pt" height="208.800000pt" viewBox="0 0 208.000000 208.800000"
 preserveAspectRatio="xMidYMid meet">
<metadata>
Created by potrace 1.13, written by Peter Selinger 2001-2015
</metadata>
<g transform="translate(0.000000,208.800000) scale(0.080000,-0.080000)"
fill="#000000" stroke="none">
<path d="M1825 2314 c-304 -47 -661 -210 -970 -442 -546 -410 -896 -972 -786
-1262 28 -72 103 -173 157 -209 176 -116 497 -166 929 -142 351 20 434 28 585
60 217 46 304 78 530 191 176 88 220 137 220 243 0 44 -5 62 -24 84 -13 15
-27 39 -31 52 -9 30 -99 72 -172 80 l-53 6 73 110 c150 224 215 361 248 520
21 102 25 257 8 337 -28 132 -141 271 -271 333 -113 54 -264 67 -443 39z m372
-51 c66 -20 148 -73 147 -96 -1 -9 2 -14 7 -12 9 6 69 -106 69 -130 0 -8 5
-15 11 -15 7 0 10 12 7 30 -7 44 6 37 30 -17 31 -68 41 -125 42 -224 0 -164
-43 -321 -132 -484 -67 -124 -223 -351 -237 -347 -7 1 -10 -2 -7 -7 9 -13 -44
-72 -56 -64 -7 4 -8 1 -3 -6 22 -37 -295 -290 -483 -385 -70 -35 -280 -119
-364 -145 -175 -53 -530 -72 -688 -37 -109 25 -171 46 -165 57 4 5 0 6 -8 3
-17 -6 -99 33 -137 65 l-25 20 45 1 45 0 -60 25 c-65 27 -82 44 -121 123 -25
49 -26 60 -21 137 10 136 68 284 183 462 34 53 59 81 66 77 7 -4 8 -3 4 5 -17
27 223 288 394 431 214 177 394 293 610 391 203 92 373 143 540 162 67 8 255
-5 307 -20z"/>
<path d="M2397 1875 c-19 -118 -101 -333 -126 -327 -7 1 -10 -2 -7 -7 8 -12
-92 -177 -105 -173 -6 1 -8 -2 -5 -7 9 -14 -34 -82 -47 -74 -6 3 -7 1 -3 -6
10 -16 -101 -164 -116 -155 -7 4 -8 3 -4 -5 12 -19 -98 -150 -179 -214 l-40
-31 30 35 c17 18 36 37 43 42 6 4 12 13 12 18 0 6 -21 -7 -47 -29 -27 -21 -66
-49 -88 -62 -22 -13 -75 -51 -117 -83 -42 -33 -81 -56 -88 -52 -6 3 -9 1 -8
-6 4 -17 -165 -119 -272 -165 -106 -45 -241 -79 -389 -99 -62 -8 -118 -18
-125 -22 -6 -4 -67 -10 -135 -13 -128 -5 -155 -16 -109 -42 17 -10 84 -13 268
-13 261 0 331 8 468 51 43 14 114 36 160 49 145 44 366 165 505 279 32 26 62
44 67 41 5 -3 12 0 16 6 4 8 3 9 -4 5 -7 -4 -12 -3 -12 1 0 12 72 82 83 82 5
0 12 3 15 7 4 4 1 4 -5 0 -21 -12 -15 2 20 49 17 25 48 66 67 92 19 27 60 92
91 146 31 54 59 95 61 90 3 -4 3 -2 1 5 -1 7 8 34 21 60 27 53 74 189 74 212
-1 8 9 63 21 122 14 66 21 132 19 175 l-3 68 -8 -50z"/>
<path d="M874 1763 c5 -11 1 -13 -15 -8 -15 5 -19 4 -15 -4 10 -15 -7 -14 -22
1 -8 8 -12 8 -12 1 0 -23 32 -36 82 -34 41 1 56 -3 75 -21 12 -12 23 -28 23
-35 0 -31 18 -1 22 36 3 30 0 37 -11 33 -9 -3 -12 -1 -8 5 4 7 0 10 -10 8 -10
-1 -31 5 -48 14 -40 21 -68 23 -61 4z"/>
<path d="M1380 1631 c-11 -8 -3 -11 35 -12 l50 -1 -47 -8 c-26 -5 -52 -11 -57
-15 -21 -13 -10 -21 23 -17 37 4 80 -13 71 -29 -4 -5 -1 -8 6 -7 16 4 26 -39
28 -115 1 -60 14 -97 33 -97 6 0 5 6 -3 17 -13 15 -12 15 8 5 22 -12 43 0 23
13 -17 11 -11 25 11 25 19 0 19 1 5 22 -21 29 -20 37 3 31 10 -3 22 0 25 6 4
6 2 11 -4 11 -12 0 -40 24 -40 34 0 3 10 7 23 7 16 1 18 2 5 6 -10 2 -18 10
-18 18 0 7 -7 16 -16 19 -8 3 -12 11 -8 17 4 7 3 9 -3 6 -6 -4 -19 3 -29 14
-21 24 -21 28 -2 40 9 6 7 8 -7 8 -11 0 -38 2 -60 6 -22 3 -47 1 -55 -4z"/>
<path d="M633 1279 c7 -87 9 -101 15 -94 3 3 11 -3 18 -13 9 -13 10 -20 1 -32
-10 -13 -10 -13 4 -3 13 10 19 10 35 -2 31 -24 89 -18 162 17 70 32 72 44 6
31 -47 -10 -117 -5 -109 7 3 4 -3 6 -13 3 -27 -7 -96 60 -89 87 3 11 1 18 -4
14 -5 -3 -9 6 -9 20 0 14 -5 28 -11 32 -7 4 -9 -16 -6 -67z"/>
</g>
</svg>
